Coordinates
version=1
nRows=5
nColumns=40
inDegrees=yes

Units are S.I. units (second, meters, Newtons, ...)
Angles are in degrees.

endheader
time	pelvis_tilt	pelvis_list	pelvis_rotation	pelvis_tx	pelvis_ty	pelvis_tz	hip_flexion_r	hip_adduction_r	hip_rotation_r	knee_angle_r	knee_angle_r_beta	ankle_angle_r	subtalar_angle_r	mtp_angle_r	hip_flexion_l	hip_adduction_l	hip_rotation_l	knee_angle_l	knee_angle_l_beta	ankle_angle_l	subtalar_angle_l	mtp_angle_l	lumbar_extension	lumbar_bending	lumbar_rotation	arm_flex_r	arm_add_r	arm_rot_r	elbow_flex_r	pro_sup_r	wrist_flex_r	wrist_dev_r	arm_flex_l	arm_add_l	arm_rot_l	elbow_flex_l	pro_sup_l	wrist_flex_l	wrist_dev_l
      5.28500000	     -5.44579391	     -3.82828811	     -2.35615433	      0.90875750	      0.93256208	      0.47260319	     35.50646982	     -6.45502079	     -7.14303791	     61.68557926	     61.68557926	     -1.94191817	    -14.10717483	     -0.33414028	     10.75658128	     -3.32132862	     -6.81510769	     18.16722285	     18.16722285	     14.99904544	     -8.08485589	      0.84106365	    -12.16660394	      6.53511565	      3.44797924	     -4.04896700	    -13.24662151	     -8.51109631	     34.76035464	     46.51511892	      0.00000000	      0.00000000	     11.99689264	    -16.80404792	     -6.26155137	     84.60791562	     47.62230683	      0.00000000	      0.00000000
      5.29685714	     -5.42854676	     -3.86872690	     -2.24191278	      0.90841847	      0.93266415	      0.47216063	     36.15263437	     -6.33717651	     -7.75707984	     58.63033313	     58.63033313	     -1.44823777	    -14.24583022	     -0.06314677	      9.88548821	     -3.28348073	     -6.84172320	     17.60197299	     17.60197299	     15.27112739	     -7.70482978	      0.71048097	    -12.18941813	      6.66049399	      3.20697966	     -5.58493533	    -12.92268723	     -8.25361674	     33.53374548	     46.53182160	      0.00000000	      0.00000000	     13.38259834	    -17.04163401	     -6.57769854	     86.20719565	     47.68366162	      0.00000000	      0.00000000
      5.30871429	     -5.27855747	     -3.91317324	     -2.16379388	      0.90823625	      0.93291559	      0.47189848	     36.39151315	     -6.11969306	     -8.29552506	     55.05640231	     55.05640231	     -0.99134377	    -14.30085454	      0.22120037	      8.80574334	     -3.27462623	     -7.02420637	     16.94244676	     16.94244676	     15.45396400	     -7.18078452	      0.52211492	    -12.43267499	      6.71194761	      3.22521787	     -7.04207417	    -12.67105124	     -7.88931597	     31.97329003	     46.55486308	      0.00000000	      0.00000000	     14.65953444	    -17.00673105	     -6.71430443	     88.48513312	     47.74836821	      0.00000000	      0.00000000
      5.32057143	     -5.24412229	     -3.88109849	     -2.04113821	      0.90811849	      0.93266919	      0.47176050	     36.53937342	     -5.94538418	     -8.78343076	     51.10203291	     51.10203291	     -0.75592590	    -14.16810842	     -0.18072010	      7.92933235	     -3.24107089	     -7.33758226	     16.42591214	     16.42591214	     15.60028266	     -6.37874982	     -0.37537604	    -12.46920053	      6.63817334	      2.36888661	     -7.45505959	    -12.32745807	     -6.80295730	     29.14264303	     46.57514827	      0.00000000	      0.00000000	     14.98654411	    -17.82829893	     -7.04427761	     91.89710227	     47.87336700	      0.00000000	      0.00000000
      5.33242857	     -5.24832777	     -3.92257368	     -1.84097023	      0.90809232	      0.93232563	      0.47161918	     36.44169770	     -5.69606969	     -9.38207721	     46.75724955	     46.75724955	     -0.29345382	    -13.62656995	      0.20971900	      7.11150395	     -3.22676527	     -7.26614826	     15.93639769	     15.93639769	     15.86905340	     -6.04260778	     -0.52527976	    -12.40890748	      6.73939001	      2.04402663	     -8.89694778	    -12.04250164	     -6.59969933	     28.45147392	     46.57314964	      0.00000000	      0.00000000	     16.22797755	    -17.97837285	     -7.40306600	     93.23400553	     47.93235960	      0.00000000	      0.00000000
